<?xml version="1.0" standalone="no"?>
<!DOCTYPE svg PUBLIC "-//W3C//DTD SVG 20010904//EN"
 "http://www.w3.org/TR/2001/REC-SVG-20010904/DTD/svg10.dtd">
<svg version="1.0" xmlns="http://www.w3.org/2000/svg"
 width="1743.000000pt" height="1743.000000pt" viewBox="0 0 1743.000000 1743.000000"
 preserveAspectRatio="xMidYMid meet">
<metadata>
Created by potrace 1.14, written by Peter Selinger 2001-2017
</metadata>
<g transform="translate(0.000000,1743.000000) scale(0.100000,-0.100000)"
fill="#000000" stroke="none">
<path d="M7177 17415 c-49 -48 -38 -102 40 -200 108 -137 184 -272 214 -380
62 -226 -33 -398 -323 -588 -80 -52 -299 -187 -304 -187 -3 0 -10 -4 -17 -10
-7 -5 -57 -39 -112 -76 -269 -179 -428 -347 -530 -559 -199 -411 -32 -653 495
-720 198 -24 683 -25 935 0 22 2 90 7 150 10 61 4 126 8 145 10 166 16 442 21
512 10 63 -11 74 -19 105 -82 22 -48 28 -72 28 -133 0 -109 -43 -197 -146
-297 -194 -188 -458 -337 -1111 -629 -106 -47 -240 -108 -298 -134 -58 -26
-132 -60 -165 -75 -566 -257 -930 -490 -1094 -700 -99 -128 -128 -210 -136
-385 -14 -318 172 -493 572 -536 120 -13 450 -7 540 10 10 2 47 7 83 10 36 4
77 9 90 12 14 3 39 7 55 9 97 14 138 22 285 51 69 14 136 28 150 30 14 3 54
12 90 20 36 9 76 18 90 20 51 10 470 117 589 151 68 19 128 36 135 37 6 2 36
10 66 19 30 9 102 29 160 46 121 34 465 134 560 163 36 10 79 23 95 27 17 5
118 33 225 64 187 53 454 125 494 133 11 2 65 13 119 24 55 12 101 19 104 17
5 -5 -66 -50 -162 -104 -228 -127 -691 -324 -1215 -518 -129 -48 -244 -91
-255 -95 -23 -10 -325 -119 -595 -214 -562 -198 -803 -284 -960 -343 -381
-141 -703 -331 -914 -539 -204 -202 -237 -374 -96 -514 61 -62 124 -82 253
-82 222 1 573 90 1157 292 693 241 908 310 1015 325 22 4 47 8 55 10 14 4 34
8 108 19 181 30 331 35 417 16 148 -33 245 -140 321 -354 l28 -80 14 50 c7 27
14 94 15 149 1 90 -2 106 -27 162 -61 135 -189 211 -419 248 -80 13 -448 14
-507 1 -14 -2 -52 -7 -85 -10 -76 -7 -154 -18 -226 -31 -9 -2 -34 -6 -55 -10
-73 -11 -99 -16 -114 -20 -8 -2 -31 -7 -50 -10 -29 -4 -56 -10 -100 -20 -3 -1
-25 -5 -50 -10 -25 -5 -47 -9 -50 -10 -3 -1 -41 -9 -85 -19 -44 -10 -143 -34
-220 -53 -77 -19 -147 -36 -155 -38 -21 -4 -252 -65 -516 -136 -122 -32 -228
-59 -235 -59 -23 0 119 80 243 137 213 97 506 199 998 347 95 29 527 155 550
160 254 65 1202 368 1395 447 17 7 35 13 40 15 6 1 64 25 130 52 596 249 924
477 1044 728 13 27 27 56 31 64 12 25 24 120 22 184 -4 119 -63 259 -141 335
-110 108 -309 164 -576 164 -88 0 -261 -10 -320 -18 -190 -27 -216 -31 -290
-45 -27 -5 -66 -12 -85 -15 -46 -8 -319 -70 -395 -91 -33 -8 -67 -17 -75 -19
-18 -4 -133 -34 -260 -70 -52 -14 -221 -64 -375 -111 -255 -79 -899 -267
-1020 -299 -177 -46 -354 -90 -405 -100 -14 -3 -61 -12 -105 -20 -44 -9 -100
-18 -125 -21 -25 -3 -56 -7 -70 -9 -14 -3 -61 -7 -105 -10 -44 -3 -99 -8 -122
-11 -24 -2 -43 -2 -43 0 0 10 156 113 205 135 11 5 45 23 74 41 30 17 210 111
400 207 420 213 626 320 750 390 51 29 95 53 97 53 8 0 303 182 413 255 625
417 891 817 789 1188 -34 125 -123 274 -220 368 -114 111 -322 163 -648 162
-106 0 -287 -9 -370 -18 -19 -2 -64 -6 -100 -10 -36 -3 -81 -8 -100 -10 -80
-9 -147 -17 -170 -20 -14 -2 -50 -7 -80 -10 -30 -3 -66 -8 -80 -10 -14 -2 -54
-7 -90 -10 -36 -4 -72 -8 -80 -10 -8 -2 -51 -6 -95 -10 -44 -3 -93 -8 -110
-10 -16 -3 -88 -5 -160 -6 -315 -2 -379 77 -227 283 38 52 199 219 277 288
108 95 135 118 180 156 428 356 569 498 652 659 72 141 73 270 4 420 -52 110
-137 219 -281 358 -106 103 -122 123 -128 159 -7 40 -8 41 -25 23z"/>
<path d="M7957 10073 c-1 0 -137 -4 -302 -8 -165 -4 -331 -8 -370 -10 -178 -7
-366 -17 -425 -20 -36 -3 -103 -7 -150 -10 -158 -9 -245 -15 -290 -20 -25 -3
-83 -7 -130 -10 -47 -3 -96 -7 -110 -10 -14 -2 -61 -6 -105 -10 -44 -3 -93 -8
-110 -10 -16 -2 -61 -7 -98 -10 -37 -4 -76 -8 -85 -10 -9 -1 -48 -6 -87 -9
-38 -4 -81 -9 -95 -11 -14 -2 -47 -6 -75 -10 -27 -3 -61 -7 -75 -9 -14 -3 -47
-7 -75 -11 -27 -3 -77 -10 -110 -15 -33 -5 -78 -12 -100 -15 -264 -39 -652
-115 -895 -175 -623 -156 -1012 -344 -1105 -535 -23 -47 -27 -69 -31 -182 -2
-70 -6 -148 -8 -173 -27 -304 -27 -1015 -1 -1295 2 -22 6 -74 10 -115 7 -93
23 -246 29 -280 3 -14 7 -52 11 -85 3 -33 10 -85 15 -115 5 -30 12 -75 15
-100 5 -42 29 -183 40 -240 3 -14 8 -41 11 -60 35 -204 158 -688 246 -965 65
-207 207 -584 285 -755 97 -213 128 -279 184 -385 34 -66 70 -136 80 -156 37
-73 202 -354 210 -357 5 -2 9 -8 9 -12 0 -35 369 -551 514 -718 13 -15 56 -65
96 -112 88 -102 430 -445 515 -515 33 -28 65 -55 70 -61 68 -74 559 -423 690
-492 102 -53 627 -197 867 -237 18 -3 40 -8 48 -10 8 -2 35 -7 60 -10 25 -3
52 -8 61 -11 9 -2 34 -7 55 -10 22 -2 66 -9 99 -14 33 -5 85 -12 115 -15 30
-3 66 -8 80 -10 14 -2 59 -7 100 -10 41 -4 91 -8 110 -10 216 -23 818 -23 995
0 17 2 66 7 110 11 44 4 94 8 110 9 17 2 48 6 70 9 22 3 57 8 79 11 67 8 123
16 211 31 17 3 44 7 60 10 49 8 198 36 220 41 28 7 105 23 135 29 97 19 423
106 565 150 127 40 342 179 645 418 63 50 122 98 131 106 9 8 47 42 85 75 93
80 373 361 459 460 39 44 72 82 75 85 62 59 339 427 461 612 l45 66 64 -50
c227 -176 490 -305 775 -378 64 -16 130 -32 148 -35 18 -3 57 -10 87 -15 183
-31 533 -33 683 -4 12 2 39 6 62 9 124 18 369 90 500 148 448 198 813 523
1089 970 65 105 165 295 206 392 12 28 27 64 35 80 92 211 207 617 255 905 11
69 23 136 25 149 2 13 7 45 11 70 3 25 8 57 10 71 2 14 6 54 10 90 3 36 7 76
9 89 27 161 27 792 0 979 -11 70 -14 89 -24 155 -21 125 -91 394 -111 422 -3
6 -15 32 -25 59 -55 150 -155 318 -273 458 -235 281 -610 471 -1012 515 -142
15 -499 9 -596 -11 -12 -2 -39 -7 -60 -10 -158 -25 -335 -68 -515 -126 -70
-22 -128 -40 -131 -40 -2 0 -4 8 -4 18 -1 44 -16 227 -19 232 -2 4 -6 37 -9
76 -8 91 -14 121 -38 167 -97 193 -474 377 -1083 531 -134 33 -262 63 -315 72
-14 3 -33 7 -42 10 -9 3 -25 6 -35 8 -41 8 -89 16 -109 20 -12 2 -37 7 -55 10
-19 3 -45 8 -59 11 -14 2 -36 7 -50 10 -33 6 -71 12 -155 25 -38 5 -79 12 -91
14 -12 2 -45 7 -74 11 -29 4 -60 8 -69 10 -9 2 -44 6 -76 10 -33 4 -69 9 -80
11 -11 2 -42 6 -70 9 -27 3 -68 8 -90 11 -22 3 -58 7 -80 9 -22 2 -58 6 -80 9
-22 3 -67 8 -100 11 -33 4 -73 9 -90 11 -16 2 -64 6 -105 9 -41 3 -91 8 -110
10 -19 2 -66 7 -105 10 -38 3 -95 8 -125 10 -30 3 -92 7 -137 10 -46 3 -118 7
-160 10 -132 9 -174 11 -563 30 -231 11 -1285 26 -1293 18z m863 -67 c275 -8
396 -13 540 -20 199 -11 435 -25 510 -31 25 -2 81 -6 125 -10 44 -3 100 -8
125 -10 25 -2 81 -7 125 -10 44 -3 91 -8 105 -10 14 -3 54 -7 90 -10 36 -3 81
-7 100 -10 41 -4 116 -13 180 -20 25 -3 63 -8 85 -11 22 -3 58 -7 80 -9 22 -3
49 -7 60 -9 18 -3 38 -6 165 -22 25 -4 54 -8 65 -10 11 -3 38 -7 60 -10 22 -3
60 -9 85 -14 25 -5 65 -12 90 -15 25 -4 122 -22 215 -41 94 -19 181 -37 195
-40 14 -3 43 -10 65 -16 22 -5 47 -11 55 -13 8 -2 42 -10 75 -19 33 -9 71 -19
84 -22 37 -8 314 -100 357 -119 285 -124 408 -231 406 -352 -3 -107 -101 -201
-316 -304 -84 -40 -302 -122 -356 -134 -8 -2 -64 -17 -124 -34 -99 -28 -469
-111 -556 -125 -19 -3 -48 -8 -65 -11 -35 -7 -125 -22 -172 -30 -74 -12 -90
-14 -133 -20 -25 -3 -56 -8 -70 -10 -14 -3 -45 -7 -69 -10 -23 -3 -55 -7 -70
-9 -14 -3 -51 -8 -81 -11 -30 -4 -62 -9 -70 -10 -8 -1 -46 -6 -85 -9 -38 -4
-81 -9 -95 -11 -14 -2 -52 -6 -85 -10 -33 -3 -78 -8 -100 -10 -134 -14 -187
-19 -330 -30 -44 -3 -100 -7 -125 -10 -80 -7 -292 -21 -637 -40 -78 -4 -378
-14 -608 -21 -170 -4 -1101 -4 -1240 1 -171 5 -446 16 -540 20 -152 8 -297 16
-365 20 -36 2 -110 7 -165 10 -55 3 -111 8 -125 10 -14 2 -68 7 -120 10 -52 3
-106 8 -120 10 -14 2 -63 7 -110 10 -47 3 -98 8 -115 10 -16 2 -55 7 -85 10
-30 3 -73 7 -95 10 -40 5 -88 10 -180 21 -27 3 -95 12 -150 19 -55 8 -122 17
-150 20 -27 4 -57 8 -65 10 -8 2 -37 7 -65 11 -27 3 -59 8 -70 10 -33 7 -197
35 -235 40 -19 3 -51 9 -70 14 -19 5 -51 12 -71 15 -107 17 -457 106 -605 154
-467 150 -669 326 -579 502 56 107 256 225 550 323 97 33 336 101 390 112 68
13 90 17 90 14 0 -2 9 1 20 7 11 6 38 14 60 17 22 4 85 16 140 27 99 19 117
23 185 34 19 3 60 10 90 15 99 17 126 21 220 35 58 8 83 12 150 20 30 4 63 9
73 11 10 2 45 6 78 9 33 4 69 8 79 10 10 2 47 6 82 9 34 3 72 8 83 10 11 2 56
7 100 10 44 4 91 9 105 11 14 2 59 6 100 10 41 3 93 7 115 9 22 2 83 7 135 11
52 4 111 8 130 10 19 2 85 6 145 10 61 3 135 8 165 10 49 4 182 10 410 20 41
2 194 7 340 10 146 4 266 8 267 9 5 4 923 -2 1123 -8z m-5464 -1262 c150 -101
381 -197 682 -283 134 -39 312 -85 362 -95 14 -2 69 -14 124 -26 54 -12 108
-24 120 -26 11 -3 44 -9 71 -14 68 -12 107 -19 195 -36 41 -7 93 -16 115 -18
22 -3 65 -10 95 -15 30 -6 79 -13 109 -16 30 -3 57 -8 61 -10 3 -2 31 -6 61
-9 30 -3 63 -8 74 -10 11 -2 47 -7 80 -10 33 -4 74 -9 90 -11 29 -4 63 -8 165
-19 47 -6 196 -21 290 -31 30 -3 84 -7 120 -10 36 -3 83 -8 105 -10 22 -3 76
-7 120 -10 44 -3 103 -7 130 -10 28 -2 95 -7 150 -10 55 -3 127 -7 160 -10 57
-5 214 -12 410 -20 735 -30 1878 -21 2430 20 33 2 105 7 160 10 55 3 125 8
155 10 30 2 92 7 136 10 45 3 97 7 115 10 19 2 72 6 119 10 47 3 101 8 120 10
36 4 96 10 190 20 30 4 69 8 85 10 17 2 57 6 90 10 33 3 74 8 90 10 17 2 53 7
80 10 28 3 61 8 75 10 14 3 48 7 75 11 28 3 58 8 69 10 10 2 44 6 75 10 31 3
58 8 61 9 3 2 29 6 59 10 30 4 63 9 75 11 12 3 39 7 61 10 22 3 150 28 285 55
294 59 286 58 329 69 19 5 37 8 39 6 7 -8 0 -304 -13 -546 -12 -214 -32 -488
-40 -540 -2 -14 -7 -54 -10 -90 -3 -36 -8 -83 -11 -105 -3 -22 -7 -53 -8 -70
-4 -38 -16 -132 -21 -165 -3 -14 -9 -56 -14 -95 -19 -130 -22 -150 -36 -230
-8 -44 -16 -96 -19 -115 -3 -19 -8 -46 -11 -60 -3 -14 -9 -50 -15 -80 -121
-659 -346 -1398 -595 -1955 -13 -27 -33 -72 -45 -100 -33 -72 -142 -292 -180
-361 -130 -235 -141 -254 -275 -459 -276 -421 -612 -793 -965 -1066 -152 -118
-185 -136 -328 -183 -114 -37 -322 -96 -390 -111 -125 -27 -272 -57 -292 -60
-14 -2 -52 -8 -85 -14 -65 -12 -129 -21 -185 -26 -19 -1 -55 -6 -80 -9 -122
-16 -340 -29 -525 -30 -140 0 -466 11 -501 18 -11 2 -54 7 -95 11 -73 6 -115
11 -174 20 -16 3 -52 7 -80 10 -27 3 -76 10 -107 16 -32 6 -70 12 -85 15 -16
2 -39 7 -53 10 -14 3 -38 8 -55 11 -16 2 -70 14 -120 25 -49 11 -97 21 -105
23 -8 2 -69 17 -135 35 -66 18 -133 36 -150 40 -51 13 -254 80 -370 122 -65
24 -136 59 -175 85 -65 45 -238 179 -295 228 -123 106 -164 144 -275 255 -384
384 -690 799 -983 1330 -62 114 -247 483 -247 495 0 2 -11 28 -24 57 -132 291
-294 739 -389 1078 -44 156 -60 212 -63 225 -1 6 -7 30 -14 55 -7 25 -14 52
-15 60 -3 13 -12 53 -30 130 -17 70 -61 284 -89 425 -5 27 -54 332 -61 375 -4
35 -23 174 -29 227 -2 16 -7 57 -10 93 -4 36 -9 76 -11 90 -2 14 -7 63 -11
110 -3 47 -7 92 -9 100 -2 8 -6 74 -10 145 -4 72 -9 150 -11 175 -5 50 -13
780 -9 780 1 0 33 -21 71 -46z m11354 -520 c41 -8 84 -16 95 -18 43 -8 151
-49 215 -81 368 -185 561 -639 562 -1323 0 -141 -9 -369 -17 -411 -1 -9 -6
-52 -9 -96 -4 -44 -9 -91 -11 -105 -2 -14 -9 -61 -15 -105 -15 -108 -20 -136
-25 -165 -3 -14 -7 -38 -10 -55 -3 -16 -7 -39 -9 -50 -3 -11 -12 -54 -21 -95
-98 -462 -282 -880 -521 -1185 -124 -160 -313 -328 -481 -429 -100 -60 -278
-138 -370 -162 -60 -15 -207 -45 -258 -51 -117 -15 -392 -8 -490 13 -11 3 -45
9 -75 15 -84 16 -251 74 -348 120 -105 49 -256 149 -335 222 l-59 53 69 139
c221 450 387 884 513 1335 22 80 44 159 50 175 5 17 29 118 54 225 43 190 50
222 61 285 3 17 14 80 25 140 22 122 24 128 40 235 6 41 13 86 16 100 2 14 6
50 10 80 3 30 7 65 9 78 2 13 7 53 10 90 4 37 8 78 11 92 2 14 6 66 10 115 3
50 7 100 9 113 4 27 17 282 19 387 1 39 5 75 9 81 4 7 37 24 74 39 38 15 77
31 88 36 62 26 309 102 375 115 13 3 56 12 95 20 38 8 88 18 110 21 22 3 60 9
85 13 82 12 361 9 440 -6z"/>
<path d="M7817 9374 c-1 -1 -114 -5 -252 -9 -334 -10 -535 -19 -700 -30 -38
-3 -106 -7 -150 -10 -44 -3 -105 -8 -135 -10 -30 -2 -86 -7 -125 -10 -38 -3
-90 -7 -115 -10 -25 -2 -79 -7 -120 -11 -41 -3 -86 -7 -100 -9 -14 -2 -54 -6
-90 -10 -36 -3 -76 -8 -90 -10 -14 -2 -54 -6 -90 -10 -36 -3 -72 -8 -80 -10
-8 -3 -42 -7 -75 -10 -33 -3 -71 -7 -85 -10 -14 -2 -45 -7 -70 -10 -90 -12
-116 -15 -135 -19 -19 -4 -79 -13 -140 -22 -74 -11 -329 -57 -416 -75 -52 -11
-104 -21 -115 -23 -155 -32 -383 -91 -568 -148 -72 -22 -96 -32 -84 -39 47
-26 387 -119 638 -174 171 -37 469 -92 605 -111 28 -3 57 -8 65 -9 18 -3 94
-15 130 -20 29 -5 256 -33 315 -40 22 -3 60 -7 85 -10 25 -3 68 -8 95 -10 28
-3 68 -7 90 -10 22 -3 66 -7 98 -10 31 -3 81 -7 110 -10 161 -15 265 -23 382
-30 50 -3 113 -8 140 -10 28 -2 111 -7 185 -10 74 -3 158 -8 185 -10 313 -26
1631 -25 2090 0 44 3 130 7 190 10 61 3 135 7 165 10 30 2 100 6 155 10 55 3
118 8 140 10 22 3 74 7 115 10 41 3 95 7 120 9 25 3 77 7 115 11 39 3 84 8
100 11 17 2 55 6 85 9 54 4 73 6 220 25 41 5 99 12 129 15 30 4 62 8 71 10 9
2 41 6 71 10 190 23 614 98 829 146 74 17 143 32 154 34 97 21 436 118 464
134 36 20 -474 154 -853 225 -104 20 -212 40 -240 45 -27 6 -86 15 -130 22
-44 6 -89 13 -100 15 -11 2 -40 6 -65 9 -41 5 -100 13 -140 20 -8 1 -42 6 -75
9 -33 4 -73 9 -90 11 -71 10 -195 24 -250 30 -33 3 -78 8 -100 10 -50 5 -130
13 -215 20 -36 3 -87 8 -115 10 -27 2 -86 7 -130 10 -44 3 -107 8 -140 10
-100 8 -407 25 -540 30 -356 14 -562 18 -963 19 -250 0 -454 0 -455 0z"/>
<path d="M3599 8242 c-2 -157 -2 -197 6 -397 9 -239 10 -271 20 -375 3 -41 8
-97 11 -125 2 -27 6 -66 9 -85 3 -19 7 -55 10 -80 42 -387 138 -864 257 -1275
56 -195 161 -521 188 -580 4 -11 27 -68 49 -127 100 -260 272 -638 371 -813
12 -22 41 -74 63 -115 190 -352 501 -794 769 -1094 276 -309 701 -671 850
-724 120 -44 379 -128 423 -138 6 -1 73 -18 150 -37 132 -34 246 -59 325 -72
19 -3 46 -7 60 -10 42 -8 94 -16 125 -20 17 -2 46 -6 65 -9 19 -3 58 -8 85
-11 28 -3 64 -7 81 -9 248 -31 777 -26 1039 9 55 7 63 8 180 25 190 28 424 84
655 156 125 40 156 54 224 102 177 127 389 319 544 492 115 128 132 148 172
200 19 25 37 47 41 50 3 3 44 57 91 120 234 316 476 736 652 1135 37 83 71
159 76 170 5 11 19 45 30 75 12 30 26 64 31 75 23 52 139 372 153 420 1 6 23
75 48 155 107 333 230 844 273 1125 2 11 11 63 20 115 9 52 19 109 21 125 2
17 8 64 14 105 16 115 18 130 25 195 3 33 8 71 10 85 2 14 6 57 10 95 3 39 8
88 10 110 2 22 7 81 10 130 3 50 8 115 10 145 8 101 16 450 11 450 -3 0 -43
-9 -88 -19 -201 -46 -578 -115 -803 -147 -22 -3 -52 -7 -66 -10 -15 -2 -47 -6
-70 -9 -75 -9 -123 -15 -149 -20 -14 -2 -52 -7 -85 -10 -33 -3 -67 -7 -75 -10
-8 -2 -51 -7 -94 -10 -43 -4 -87 -8 -97 -10 -10 -2 -51 -6 -91 -9 -40 -4 -82
-8 -93 -10 -11 -2 -61 -7 -110 -10 -50 -4 -104 -9 -120 -11 -17 -2 -73 -6
-125 -10 -52 -3 -111 -8 -130 -10 -19 -2 -87 -6 -150 -10 -63 -4 -131 -8 -150
-10 -30 -3 -165 -10 -390 -20 -528 -24 -1482 -24 -1955 0 -38 2 -133 6 -210
10 -77 3 -156 8 -175 10 -19 2 -78 7 -130 10 -95 6 -181 12 -255 20 -22 2 -71
7 -110 10 -38 4 -83 8 -100 11 -16 2 -55 6 -85 9 -69 5 -123 12 -275 31 -66 9
-136 17 -155 20 -19 2 -60 9 -90 14 -30 5 -73 11 -95 13 -57 6 -319 54 -455
82 -158 34 -182 35 -186 10 -9 -51 -18 -246 -18 -400 1 -192 9 -333 30 -495 3
-25 8 -61 10 -80 2 -19 6 -46 9 -60 2 -14 7 -47 11 -75 3 -27 8 -52 9 -55 2
-3 6 -26 10 -50 8 -56 71 -347 90 -415 8 -27 16 -61 19 -75 30 -148 193 -663
321 -1010 107 -292 366 -929 485 -1195 10 -22 39 -87 65 -145 61 -139 77 -173
82 -182 15 -28 -19 9 -119 125 -512 596 -847 1081 -1092 1582 -122 251 -176
382 -271 660 -70 206 -160 554 -190 740 -3 17 -10 53 -15 80 -11 57 -17 92
-25 150 -3 22 -8 51 -10 65 -3 14 -7 48 -11 75 -3 28 -7 61 -9 75 -2 14 -7 52
-10 85 -3 33 -8 76 -10 95 -3 19 -7 67 -10 105 -3 39 -8 93 -10 120 -7 87 -20
338 -24 487 -1 10 -15 21 -38 29 -50 16 -235 91 -318 128 l-65 30 -1 -67z"/>
<path d="M14615 2662 c6 -6 39 -33 75 -61 290 -230 283 -480 -21 -716 -344
-268 -1113 -523 -2099 -696 -63 -11 -126 -22 -140 -24 -14 -3 -83 -14 -155
-25 -71 -12 -137 -23 -145 -25 -8 -2 -42 -7 -75 -10 -33 -4 -67 -8 -75 -10 -8
-2 -37 -7 -65 -10 -27 -4 -61 -8 -75 -10 -69 -10 -322 -42 -400 -50 -30 -3
-66 -8 -80 -10 -14 -2 -59 -7 -100 -10 -41 -3 -82 -8 -90 -10 -8 -2 -53 -7
-100 -10 -47 -4 -96 -8 -110 -10 -14 -2 -61 -6 -105 -10 -44 -4 -91 -8 -105
-10 -14 -3 -68 -7 -120 -10 -52 -3 -115 -8 -140 -10 -125 -10 -258 -19 -445
-30 -60 -4 -139 -8 -175 -10 -36 -2 -130 -7 -210 -10 -80 -4 -176 -8 -215 -10
-448 -26 -1818 -26 -2330 0 -44 2 -141 6 -215 10 -74 3 -166 7 -205 10 -38 2
-117 6 -175 10 -58 3 -130 7 -160 9 -30 3 -100 7 -155 11 -55 3 -122 8 -150
10 -27 3 -81 7 -120 10 -38 3 -88 8 -110 10 -22 3 -75 7 -118 10 -42 3 -92 7
-110 9 -17 3 -61 7 -97 11 -152 14 -194 19 -380 40 -25 3 -65 8 -90 11 -110
12 -338 42 -380 49 -14 3 -47 7 -75 10 -27 3 -61 8 -75 10 -14 3 -43 7 -65 11
-60 8 -76 11 -245 39 -202 34 -197 33 -218 39 -9 2 -39 7 -66 11 -27 3 -52 8
-55 10 -3 1 -22 6 -41 9 -147 23 -557 117 -740 168 -550 154 -860 279 -1112
447 -122 81 -220 181 -263 267 -26 52 -30 70 -30 144 0 96 16 140 80 225 37
49 146 148 188 172 44 24 -3 12 -80 -21 -319 -136 -516 -287 -597 -456 -28
-59 -31 -74 -31 -160 1 -81 4 -103 27 -152 119 -256 480 -494 1043 -688 167
-57 564 -200 600 -215 17 -7 75 -30 130 -50 55 -20 127 -47 160 -60 313 -122
938 -330 1115 -370 8 -2 76 -19 150 -38 162 -42 423 -101 530 -121 14 -3 97
-18 185 -35 88 -16 180 -32 205 -36 25 -3 52 -8 60 -10 8 -2 35 -7 60 -10 25
-3 52 -8 60 -10 8 -2 38 -6 65 -10 47 -6 84 -11 145 -20 54 -8 197 -27 235
-31 22 -2 56 -6 75 -8 36 -5 66 -9 225 -26 118 -12 187 -19 255 -24 30 -3 78
-7 105 -10 28 -3 86 -8 130 -11 44 -3 98 -8 120 -10 22 -2 83 -7 135 -10 52
-3 120 -8 150 -10 74 -6 247 -16 345 -20 44 -2 152 -7 240 -12 214 -10 817
-10 1035 1 96 5 195 10 220 11 205 10 396 22 485 30 28 2 91 7 140 10 50 4
106 8 125 10 19 2 76 6 125 10 50 3 101 8 115 10 14 2 59 7 100 10 41 4 86 8
100 10 14 2 54 6 90 10 36 4 76 8 90 10 14 2 53 7 87 10 34 3 70 7 80 9 10 2
45 7 78 10 33 4 71 9 85 11 14 2 45 7 70 10 25 3 56 8 70 10 14 2 72 11 130
19 58 9 116 18 130 20 14 3 81 14 150 26 214 36 458 86 750 155 58 13 202 52
290 77 58 17 110 31 115 32 77 16 577 185 855 289 553 207 670 250 905 332
138 48 268 96 289 106 22 11 44 19 49 19 5 0 77 33 160 74 471 230 691 484
642 741 -39 199 -255 383 -650 552 -44 19 -75 30 -70 25z"/>
<path d="M4247 2644 c-3 -3 -53 -25 -112 -49 -184 -75 -353 -182 -433 -274
-42 -49 -72 -122 -72 -176 0 -170 190 -330 568 -479 129 -51 278 -101 284 -95
2 1 13 -3 25 -9 30 -17 379 -105 533 -136 164 -32 354 -68 435 -81 55 -9 114
-19 130 -21 17 -3 42 -7 58 -9 15 -2 64 -9 110 -15 45 -6 93 -13 107 -15 14
-2 50 -7 80 -10 30 -3 62 -8 70 -10 8 -2 47 -6 85 -10 39 -3 81 -8 95 -10 26
-5 88 -11 204 -20 39 -3 80 -8 91 -10 11 -2 61 -7 110 -10 50 -3 104 -8 120
-10 17 -2 75 -6 130 -10 55 -3 127 -8 160 -10 475 -31 704 -38 1220 -39 389
-1 793 7 945 19 25 1 106 6 180 10 74 3 153 8 175 10 22 1 85 6 140 10 55 3
116 8 135 10 19 2 78 6 130 10 52 4 103 9 112 10 9 2 50 6 90 10 40 3 87 7
103 9 17 3 57 7 90 10 58 6 92 10 173 21 20 3 57 7 82 10 25 3 61 7 80 10 19
3 53 7 75 10 100 12 407 61 560 90 143 28 139 27 245 50 41 9 85 18 97 21 163
32 630 170 737 218 232 104 355 178 438 263 188 193 107 393 -233 577 -71 38
-271 126 -287 126 -3 0 20 -24 49 -53 242 -240 43 -488 -556 -695 -133 -46
-377 -116 -445 -128 -14 -3 -38 -9 -55 -14 -16 -5 -55 -14 -85 -19 -53 -11
-73 -15 -122 -26 -13 -3 -48 -9 -78 -15 -30 -6 -66 -12 -80 -15 -14 -3 -38 -8
-55 -10 -86 -15 -143 -25 -170 -29 -58 -9 -120 -18 -136 -21 -9 -2 -40 -6 -70
-10 -30 -3 -61 -8 -69 -10 -8 -2 -44 -7 -80 -10 -36 -4 -72 -8 -80 -10 -8 -1
-42 -6 -75 -9 -33 -4 -94 -11 -135 -16 -74 -9 -171 -18 -260 -25 -25 -2 -74
-7 -110 -11 -36 -3 -90 -8 -120 -9 -30 -2 -82 -6 -115 -9 -33 -3 -112 -8 -175
-11 -63 -3 -144 -8 -180 -10 -405 -26 -1207 -26 -1655 0 -38 2 -121 6 -184 10
-63 3 -135 8 -160 10 -25 2 -84 7 -131 10 -47 3 -103 8 -125 10 -22 2 -71 6
-110 10 -38 3 -86 8 -105 10 -42 5 -126 13 -195 20 -27 3 -66 7 -85 10 -19 2
-57 7 -85 10 -106 13 -276 37 -425 62 -85 14 -164 26 -176 28 -11 2 -45 8 -75
14 -30 6 -65 12 -79 15 -14 2 -99 21 -190 41 -91 20 -176 39 -189 41 -13 3
-31 9 -40 13 -9 5 -33 11 -53 15 -59 11 -369 113 -460 152 -320 136 -472 266
-485 413 -5 52 -2 68 21 115 15 31 53 80 84 111 31 30 54 55 51 55 -3 0 -8 -3
-12 -6z"/>
</g>
</svg>
